<svg xmlns="http://www.w3.org/2000/svg" xmlns:xlink="http://www.w3.org/1999/xlink" viewBox="0 0 151.67 135.01"><defs><style>.cls-1{fill:url(#linear-gradient);}.cls-2{fill:url(#linear-gradient-2);}.cls-3{fill:url(#linear-gradient-3);}.cls-4{opacity:0.6;fill:url(#linear-gradient-4);}</style><linearGradient id="linear-gradient" x1="-11.46" y1="30.51" x2="124.62" y2="109.07" gradientUnits="userSpaceOnUse"><stop offset="0" stop-color="#fae8d1"/><stop offset="0.44" stop-color="#fbe7d4" stop-opacity="0.54"/><stop offset="0.83" stop-color="#fce5d7" stop-opacity="0.15"/><stop offset="1" stop-color="#fce5d8" stop-opacity="0"/></linearGradient><linearGradient id="linear-gradient-2" x1="19.55" y1="-5.12" x2="94.5" y2="124.68" gradientUnits="userSpaceOnUse"><stop offset="0" stop-color="#f6eae1"/><stop offset="0.1" stop-color="#f7e9df" stop-opacity="0.82"/><stop offset="0.23" stop-color="#f8e8dd" stop-opacity="0.6"/><stop offset="0.36" stop-color="#f9e7dc" stop-opacity="0.42"/><stop offset="0.49" stop-color="#fae6da" stop-opacity="0.27"/><stop offset="0.62" stop-color="#fbe6d9" stop-opacity="0.15"/><stop offset="0.75" stop-color="#fce5d9" stop-opacity="0.07"/><stop offset="0.88" stop-color="#fce5d8" stop-opacity="0.02"/><stop offset="1" stop-color="#fce5d8" stop-opacity="0"/></linearGradient><linearGradient id="linear-gradient-3" x1="-18.02" y1="76.81" x2="95.31" y2="142.25" gradientUnits="userSpaceOnUse"><stop offset="0" stop-color="#fae1dc"/><stop offset="0.44" stop-color="#fbe3da" stop-opacity="0.54"/><stop offset="0.83" stop-color="#fce4d9" stop-opacity="0.15"/><stop offset="1" stop-color="#fce5d8" stop-opacity="0"/></linearGradient><linearGradient id="linear-gradient-4" x1="-4.2" y1="116.63" x2="163.2" y2="19.98" gradientUnits="userSpaceOnUse"><stop offset="0" stop-color="#fce5d8"/><stop offset="0.11" stop-color="#fce5d8" stop-opacity="0.8"/><stop offset="0.24" stop-color="#fce5d8" stop-opacity="0.59"/><stop offset="0.37" stop-color="#fce5d8" stop-opacity="0.41"/><stop offset="0.5" stop-color="#fce5d8" stop-opacity="0.26"/><stop offset="0.62" stop-color="#fce5d8" stop-opacity="0.15"/><stop offset="0.75" stop-color="#fce5d8" stop-opacity="0.06"/><stop offset="0.88" stop-color="#fce5d8" stop-opacity="0.02"/><stop offset="1" stop-color="#fce5d8" stop-opacity="0"/></linearGradient></defs><title>bg-left</title><g id="Layer_2" data-name="Layer 2"><g id="Layer_3" data-name="Layer 3"><path class="cls-1" d="M8.29,1.6,109.65,135H99.71L0,75V16C0,4,8.29,1.6,8.29,1.6Z"/><path class="cls-2" d="M53,0,76.63,135H70L2.8,5.64A15.86,15.86,0,0,1,15,0Z"/><path class="cls-3" d="M0,45.59,99.5,135H14c-4,0-13-3-14-14Z"/><path class="cls-4" d="M0,73.76,138.58,0h13.09L34,135H15C3,135,0,124,0,120Z"/></g></g></svg>