<svg xmlns="http://www.w3.org/2000/svg" viewBox="0 0 21.17 16"><defs><style>.cls-1{fill:none;stroke:#7b5eee;stroke-miterlimit:10;}</style></defs><title>logout-focus</title><g id="Layer_2" data-name="Layer 2"><g id="Layer_2-2" data-name="Layer 2"><g id="_Group_" data-name="&lt;Group&gt;"><path id="_Path_" data-name="&lt;Path&gt;" class="cls-1" d="M3.63,8.92H14.25a.92.92,0,1,0,0-1.83H3.63L4.82,5.9a.92.92,0,1,0-1.3-1.3L.77,7.35l-.06.07v0l0,.05v0l0,.06h0l0,.07h0l0,.08h0l0,.08v.09a.9.9,0,0,0,0,.18v.09l0,.08h0l0,.08h0l0,.07h0l0,.06v0l0,.05v0l.06.07L3.52,11.4a.92.92,0,1,0,1.3-1.3Z"/><path id="_Path_2" data-name="&lt;Path&gt;" class="cls-1" d="M13.17.5A7.49,7.49,0,0,0,6.94,3.82a.92.92,0,0,0,1.52,1,5.67,5.67,0,1,1,0,6.32.92.92,0,0,0-1.52,1A7.5,7.5,0,1,0,13.17.5Z"/></g></g></g></svg>