<svg xmlns="http://www.w3.org/2000/svg" viewBox="0 0 32.25 26"><defs><style>.cls-1{fill:#cdcaeb;}.cls-2{fill:none;stroke:#cdcaeb;stroke-miterlimit:10;}</style></defs><title>mail-icon</title><g id="Layer_2" data-name="Layer 2"><g id="Layer_3" data-name="Layer 3"><path class="cls-1" d="M24.69,4.38H7.57A2.77,2.77,0,0,0,4.8,7.15v11.7a2.77,2.77,0,0,0,2.77,2.77H24.68a2.77,2.77,0,0,0,2.77-2.77V7.15A2.77,2.77,0,0,0,24.69,4.38Zm1.5,14.47a1.51,1.51,0,0,1-1.5,1.5H7.57a1.51,1.51,0,0,1-1.5-1.5V7.15a1.51,1.51,0,0,1,1.5-1.5H24.68a1.51,1.51,0,0,1,1.5,1.5v11.7Z"/><path class="cls-1" d="M19.09,12.85l5.54-5a.63.63,0,1,0-.85-.94L16.14,13.8l-1.49-1.33h0l-.1-.09L8.47,6.94a.63.63,0,0,0-.84.95l5.61,5L7.65,18.12a.64.64,0,0,0,0,.9.65.65,0,0,0,.46.2.63.63,0,0,0,.43-.17l5.67-5.3,1.54,1.37a.63.63,0,0,0,.84,0l1.58-1.42,5.63,5.35a.63.63,0,0,0,.9,0,.64.64,0,0,0,0-.9Z"/><rect class="cls-2" x="0.5" y="0.5" width="31.25" height="25" rx="5" ry="5"/></g></g></svg>