<svg xmlns="http://www.w3.org/2000/svg" viewBox="0 0 140 36.8"><defs><style>.cls-1,.cls-3{fill:#259955;}.cls-2,.cls-6{fill:#fff;}.cls-3,.cls-4,.cls-5,.cls-6,.cls-8{fill-rule:evenodd;}.cls-4,.cls-7{fill:#d9d9d9;}.cls-8{fill:#4cc47e;}</style></defs><title>pm-logo</title><g id="Layer_2" data-name="Layer 2"><g id="Layer_2-2" data-name="Layer 2"><path class="cls-1" d="M42.79,22.66V14.14a.64.64,0,0,1,.18-.46.6.6,0,0,1,.45-.19h5.22q4.14,0,4.14,3.81t-4.14,3.81H45.36v1.54a.64.64,0,0,1-.64.64H43.44a.63.63,0,0,1-.46-.19A.61.61,0,0,1,42.79,22.66Zm2.58-3.47h2.5a3.22,3.22,0,0,0,1.74-.39,1.65,1.65,0,0,0,.59-1.49,1.65,1.65,0,0,0-.59-1.49,3.22,3.22,0,0,0-1.74-.39h-2.5Z"/><path class="cls-1" d="M54.38,22.81A2,2,0,0,1,53.47,21a2,2,0,0,1,.91-1.76,4.07,4.07,0,0,1,2.33-.62H59a1.49,1.49,0,0,0-.34-1.11,1.71,1.71,0,0,0-1.17-.31,1.44,1.44,0,0,0-1.18.41,1,1,0,0,1-.83.41h-1a.41.41,0,0,1-.3-.12.4.4,0,0,1-.12-.3q0-2,3.73-2a4.29,4.29,0,0,1,2.61.73,2.62,2.62,0,0,1,1,2.25v4.23a.4.4,0,0,1-.42.42H59.61a.4.4,0,0,1-.3-.12.41.41,0,0,1-.12-.3v-.21a4.16,4.16,0,0,1-2.49.77A4,4,0,0,1,54.38,22.81Zm1.74-2.37a.75.75,0,0,0-.28.6.76.76,0,0,0,.29.61,1.24,1.24,0,0,0,.81.24,3.76,3.76,0,0,0,2-.62V20.2h-2.1A1.14,1.14,0,0,0,56.12,20.43Z"/><path class="cls-1" d="M63,22.88V16.23a.41.41,0,0,1,.12-.3.4.4,0,0,1,.3-.12H65a.4.4,0,0,1,.3.12.41.41,0,0,1,.12.3v.43a3.83,3.83,0,0,1,2.51-1,3,3,0,0,1,2.16.81A3.31,3.31,0,0,1,70.89,19v3.92a.4.4,0,0,1-.12.3.41.41,0,0,1-.3.12H68.95a.41.41,0,0,1-.42-.42V19q0-1.63-1.31-1.63a2.73,2.73,0,0,0-1.83,1v4.58a.41.41,0,0,1-.42.42H63.44a.41.41,0,0,1-.42-.42Z"/><path class="cls-1" d="M75.5,23.44a3.17,3.17,0,0,1-2.39-1,4,4,0,0,1-1-2.88,3.91,3.91,0,0,1,1-2.88,3.6,3.6,0,0,1,2.68-1,6.67,6.67,0,0,1,2,.35v-2.1a.41.41,0,0,1,.12-.3.4.4,0,0,1,.3-.12h1.52a.41.41,0,0,1,.42.42v9a.4.4,0,0,1-.12.3.41.41,0,0,1-.3.12H78.43a.4.4,0,0,1-.3-.12.41.41,0,0,1-.12-.3v-.21A4.23,4.23,0,0,1,75.5,23.44ZM75,17.85a2.91,2.91,0,0,0-.39,1.7,3.05,3.05,0,0,0,.37,1.7,1.26,1.26,0,0,0,1.11.53,3.39,3.39,0,0,0,1.73-.62V17.6a5.18,5.18,0,0,0-1.48-.27A1.55,1.55,0,0,0,75,17.85Z"/><path class="cls-1" d="M82.33,22.81A2,2,0,0,1,81.42,21a2,2,0,0,1,.91-1.76,4.07,4.07,0,0,1,2.33-.62h2.26a1.49,1.49,0,0,0-.34-1.11,1.71,1.71,0,0,0-1.17-.31,1.44,1.44,0,0,0-1.18.41,1,1,0,0,1-.83.41h-1a.41.41,0,0,1-.3-.12.4.4,0,0,1-.12-.3q0-2,3.73-2a4.29,4.29,0,0,1,2.61.73,2.62,2.62,0,0,1,1,2.25v4.23a.4.4,0,0,1-.42.42H87.56a.4.4,0,0,1-.3-.12.41.41,0,0,1-.12-.3v-.21a4.16,4.16,0,0,1-2.49.77A4,4,0,0,1,82.33,22.81Zm1.74-2.37a.75.75,0,0,0-.28.6.76.76,0,0,0,.29.61,1.24,1.24,0,0,0,.81.24,3.76,3.76,0,0,0,2-.62V20.2h-2.1A1.14,1.14,0,0,0,84.07,20.43Z"/><path class="cls-1" d="M96,22.64V14.16a.65.65,0,0,1,.18-.47.6.6,0,0,1,.45-.19h2.78a.8.8,0,0,1,.51.19.93.93,0,0,1,.32.46l2,5.84,2-5.84a.93.93,0,0,1,.32-.46.8.8,0,0,1,.51-.19h2.78a.59.59,0,0,1,.45.19.66.66,0,0,1,.18.47v8.49a.64.64,0,0,1-.19.47.62.62,0,0,1-.45.19h-1.23a.62.62,0,0,1-.45-.19.64.64,0,0,1-.19-.47V16l-2.41,6.72a1,1,0,0,1-.34.43.82.82,0,0,1-.51.18h-1a.81.81,0,0,1-.5-.18,1,1,0,0,1-.34-.43L98.54,16v6.68a.64.64,0,0,1-.19.47.62.62,0,0,1-.45.19H96.66a.65.65,0,0,1-.65-.66Z"/><path class="cls-1" d="M111,22.44a3.77,3.77,0,0,1-1.05-2.88A3.79,3.79,0,0,1,111,16.68a4.09,4.09,0,0,1,2.94-1,4.14,4.14,0,0,1,2.93,1,3.66,3.66,0,0,1,1.05,2.81v.39a.41.41,0,0,1-.42.42h-5.15a1.81,1.81,0,0,0,.48,1.22,1.91,1.91,0,0,0,1.32.38,1.54,1.54,0,0,0,1.24-.41,1,1,0,0,1,.83-.42h1a.41.41,0,0,1,.42.42q0,2-3.74,2A4.1,4.1,0,0,1,111,22.44Zm1.35-3.6h3.18q-.07-1.61-1.58-1.61T112.34,18.83Z"/><path class="cls-1" d="M122.11,23.44a3.17,3.17,0,0,1-2.39-1,4,4,0,0,1-1-2.88,3.91,3.91,0,0,1,1-2.88,3.6,3.6,0,0,1,2.68-1,6.67,6.67,0,0,1,2,.35v-2.1a.41.41,0,0,1,.12-.3.4.4,0,0,1,.3-.12h1.52a.41.41,0,0,1,.42.42v9a.4.4,0,0,1-.12.3.41.41,0,0,1-.3.12H125a.4.4,0,0,1-.3-.12.41.41,0,0,1-.12-.3v-.21A4.23,4.23,0,0,1,122.11,23.44Zm-.52-5.58a2.91,2.91,0,0,0-.39,1.7,3.05,3.05,0,0,0,.37,1.7,1.26,1.26,0,0,0,1.11.53,3.39,3.39,0,0,0,1.73-.62V17.6a5.18,5.18,0,0,0-1.48-.27A1.55,1.55,0,0,0,121.59,17.85Z"/><path class="cls-1" d="M128.45,14.38v-.23a.78.78,0,0,1,.21-.57.77.77,0,0,1,.58-.21h.85a.78.78,0,0,1,.57.21.77.77,0,0,1,.21.58v.23a.78.78,0,0,1-.21.57.77.77,0,0,1-.58.21h-.85a.73.73,0,0,1-.79-.79Zm0,8.51V16.39a.4.4,0,0,1,.12-.3.41.41,0,0,1,.3-.12h1.53a.4.4,0,0,1,.3.12.41.41,0,0,1,.12.3v6.49a.4.4,0,0,1-.12.3.41.41,0,0,1-.3.12H128.9a.4.4,0,0,1-.42-.42Z"/><path class="cls-1" d="M133,22.81a2,2,0,0,1-.91-1.78,2,2,0,0,1,.91-1.76,4.07,4.07,0,0,1,2.33-.62h2.26a1.49,1.49,0,0,0-.34-1.11,1.71,1.71,0,0,0-1.17-.31,1.44,1.44,0,0,0-1.18.41,1,1,0,0,1-.83.41h-1a.41.41,0,0,1-.3-.12.4.4,0,0,1-.12-.3q0-2,3.73-2a4.29,4.29,0,0,1,2.61.73,2.62,2.62,0,0,1,1,2.25v4.23a.4.4,0,0,1-.42.42h-1.32a.4.4,0,0,1-.3-.12.41.41,0,0,1-.12-.3v-.21a4.16,4.16,0,0,1-2.49.77A4,4,0,0,1,133,22.81Zm1.74-2.37a.75.75,0,0,0-.28.6.76.76,0,0,0,.29.61,1.24,1.24,0,0,0,.81.24,3.76,3.76,0,0,0,2-.62V20.2h-2.1A1.14,1.14,0,0,0,134.78,20.43Z"/><polygon class="cls-2" points="4.34 22.74 6.76 17.71 9.19 9.21 18.9 3.66 29.14 5.74 33.82 11.81 35.9 22.74 35.9 29.33 25.32 35.57 15.26 32.8 5.12 25 4.34 22.74"/><path class="cls-3" d="M1.18,28.23A1.28,1.28,0,0,0,1,27.79a.51.51,0,0,0-.35-.24H.57a.18.18,0,0,0-.09.1.62.62,0,0,0,0,.3,1.29,1.29,0,0,0,.06.26h.66Z"/><path class="cls-4" d="M16.94,15c-.43-.49-.72,2.52-1.06,2.18s.53-1.59-.27-1.69.58-1-.62-.79c-6.7,1.23-6.65,5.93-3.57,7.63a.68.68,0,0,1,.25-.57c.25.27,1,1.3,1.53,1.33.58-1,2.71-.7,3.41-1.76a2.27,2.27,0,0,1-.24.73,4.77,4.77,0,0,0,1.42-1,5.22,5.22,0,0,0,.68-.86c.27-.43.44-.47.46-.9A2.62,2.62,0,0,1,19,23,11.26,11.26,0,0,1,21,22.8h0a11.26,11.26,0,0,1,2.05.25,2.62,2.62,0,0,1,0-3.74,2.83,2.83,0,0,0,.46,1.31,5.22,5.22,0,0,0,.68.86,4.77,4.77,0,0,0,1.42,1,2.27,2.27,0,0,1-.24-.73c.7,1.06,2.34,1.55,2.91,2.6.5,0,1.62-1.17,1.86-1.44a.68.68,0,0,1,.25.57c3.08-1.69,3.29-7.54-3.4-8.77-1.21-.22.22.69-.62.79s.19,1.23-.27,1.69-.63-2.67-1.06-2.18a3,3,0,0,0-2.22,1.17,2.36,2.36,0,0,1,.6-2,1.19,1.19,0,0,0-1.53.82,2.6,2.6,0,0,0-.91-1.82v-.06l0,0,0,0v.06a2.6,2.6,0,0,0-.91,1.82,1.19,1.19,0,0,0-1.53-.82,2.36,2.36,0,0,1,.6,2A3,3,0,0,0,16.94,15Z"/><path class="cls-5" d="M31.55,18.69c.34,2-1.34,4.44-3.33,4.44-1.39,0-3.56-2.49-4.29-3.16A2.44,2.44,0,0,1,23,17.42c.59-2.1,1.57-2.91,2.8-2.88,2.07,0,5.34,2.08,5.7,4.16Z"/><path class="cls-6" d="M27,20a1.42,1.42,0,0,1-1.65-.92c-.06-.34,2.53-1.11,2.69-.64A1.34,1.34,0,0,1,27,20Z"/><path class="cls-5" d="M7.18,13.31c.29-1.27-3.25-2-3.42-5.64S5.58,2.44,7.49.83c.15.33.3.34.46.29S8.09.57,8.64,0c.18.47.35,1.15.73,1,.15-.05.08-.32.28-.59a2.15,2.15,0,0,0,.72.61,4.85,4.85,0,0,1,1.44,1.8c.95,1.38,1.77,1.75,3.93,1A15.4,15.4,0,0,1,21,2.87h0a15.4,15.4,0,0,1,5.27.92c2.16.79,3,.42,3.93-1A4.84,4.84,0,0,1,31.7,1a2.16,2.16,0,0,0,.72-.61c.2.27.13.54.28.59.38.14.55-.54.73-1,.55.57.45,1,.7,1.12s.31,0,.46-.29c1.91,1.62,3.9,3.31,3.73,6.85S34.6,12,34.89,13.31q.12.6.19,1.23c.59,3,.53,9.3,3.82,11.43a1.37,1.37,0,0,1-1,.48,2.09,2.09,0,0,1-.26,2.3c-.13-.24-.29-.38-.34-.38-.28,2.07-4.76,4-6.37,4.82-4.09,2.14-4.83,3.59-9.9,3.6h0c-5.8,0-7.19-2.73-10.49-4.64A19.17,19.17,0,0,0,7,30.36c-1.25-.49-3.35-1.8-3.29-3.29-.06,0-.21.09-.34.33a2.09,2.09,0,0,1-.26-2.3,1.36,1.36,0,0,1-1-.42c1.71-1.11,4.49-8,4.91-10.15q.07-.63.19-1.23ZM21,4.21h0A12.74,12.74,0,0,0,8.1,15a28.45,28.45,0,0,1-2.64,7.37c-1.1,2.34-.38,5.81,2.3,6.86a21.33,21.33,0,0,1,3.45,2c3,1.76,4.71,4.41,9.83,4.42s6.16-2.13,9.2-3.89c3.25-1.88,7.67-3.06,5.31-8.05-1.22-2.57-1-5.84-1.58-8.73A12.74,12.74,0,0,0,21,4.21Z"/><path class="cls-5" d="M10.52,18.69c-.34,2,.91,3,3.52,3A5.61,5.61,0,0,0,18.15,20c.81-.74,1.52-1.81.88-2.56-1.36-1.56-2-2.74-3.24-2.71-2.07,0-4.89,1.9-5.26,4Z"/><path class="cls-6" d="M15.14,19.3c.74.2,1.4.27,1.55-.17.09-.26-2.44-1.16-2.64-.82s.34.79,1.08,1Z"/><path class="cls-7" d="M10.88,10.54c.42-.89,2.51-1.39,4.27-1.36A3.38,3.38,0,0,0,14,8c1.06-.56,3.32-.08,4.2.32a2.38,2.38,0,0,0-.73-1.49A5.58,5.58,0,0,1,21,7.93a.14.14,0,0,0,.12,0,5.58,5.58,0,0,1,3.46-1.08,2.38,2.38,0,0,0-.73,1.49C24.71,7.93,27,7.45,28,8a3.38,3.38,0,0,0-1.11,1.17c1.76,0,3.85.47,4.27,1.36a1.89,1.89,0,0,0-1.37.34c1.48.39,3.4,2.5,3.3,3.47a1.57,1.57,0,0,0-.85-.05c1.34,1.21.22,6.24,2.18,9.39A3.58,3.58,0,0,1,34.84,27v0l0,0,0,.06a1.86,1.86,0,0,0-1.4-1.27A2.6,2.6,0,0,1,33.59,28h0a2.9,2.9,0,0,0-.71-.63c.35,2.48-1.88,2.92-4.12,3.41,0,0,0,0,0,0a.84.84,0,0,1-.64,0,.47.47,0,0,1,.47-.26,1,1,0,0,0-1-.33.65.65,0,0,1,.41-.32c-2.49-.84-5.28,1.19-6.68-1.94-.37-.82-.46-2.48,1.89-2.94,1-.19,1.85-1.1,1.07-1.39A8,8,0,0,0,21,23.18h0a8,8,0,0,0-3.24.42c-.78.28.07,1.19,1.07,1.39,2.35.46,2.14,2.08,1.89,2.94-.56,1.94-2.87,1.87-4.59.68a10.6,10.6,0,0,1-2.8-3.13,1.69,1.69,0,0,0-2.49-.33.9.9,0,0,1,.91.49,2.48,2.48,0,0,0-1.52.42,1.46,1.46,0,0,1,.9.37c-.88,0-.86,1.27-.47,1.56,1.39.88,2.78,2.25,4.2,3.31a50.74,50.74,0,0,0-5.24-2.09A3.77,3.77,0,0,1,8.15,26a2.9,2.9,0,0,0-.71.63h0l0,0h0v0h0v0h0v0h0v0h0v-.44h0v-.05h0s0,0,0-.05v-.14h0v-.06h0v-.06h0V25.4h0v-.06h0v-.06h0V25.2h0v-.06h0l0-.06h0l0-.06h0l0-.06h0l0-.07h0l0-.07h0l0-.06h0l0-.06h0l0-.07h0l0-.07a1.86,1.86,0,0,0-1.4,1.27l0-.06,0,0v0a3.58,3.58,0,0,1,.39-3.35c2-3.15,1.9-6.78,3.23-8a1.57,1.57,0,0,0-.85.05c-.09-1,1.82-3.09,3.3-3.47a1.89,1.89,0,0,0-1.37-.34Zm10,22.25a28.49,28.49,0,0,1,3.41-.94l-1.14-1.41a4.93,4.93,0,0,1-2.14-.7,4.92,4.92,0,0,1-2.14.7l2,2.35Zm.16-28.58h0c0-.77,0-.58,0,0A12.74,12.74,0,0,0,8.1,15,30.43,30.43,0,0,1,6,21.17a11.5,11.5,0,0,1-1.9,3.15.58.58,0,0,0,.52,0,1.87,1.87,0,0,0-.39,1.44,1.13,1.13,0,0,1,.73-.26,4.66,4.66,0,0,0,2.82,3.63,25.7,25.7,0,0,1,3.76,2.25c3,1.76,4.19,4.22,9.49,4.23h0c5.3,0,6.22-1.75,9.26-3.51,1.07-.62,4.21-2.23,4.79-3a3.45,3.45,0,0,0,1.06-2.32,1.63,1.63,0,0,1,.63.41,1.87,1.87,0,0,0-.39-1.44.58.58,0,0,0,.52,0C34.27,22.88,34.75,19,34,15A12.74,12.74,0,0,0,21.06,4.21Z"/><path class="cls-5" d="M12,26.43h0l-.24.17a5.85,5.85,0,0,0-.88,1.11c-.08.13.14,0,.27.09a.28.28,0,0,0,.26,0c.39,1.54,2.69,3.29,5.19,4.25a11.89,11.89,0,0,0,4.4.68h0c1.18,0,4.59-.52,5.55-1.73h0a3.27,3.27,0,0,0,.5.11c.37,0,.58-.08.06-.39a3.64,3.64,0,0,0-.88-.41,5.84,5.84,0,0,0-1.41-.09h0a4.21,4.21,0,0,1-2-.15,2.38,2.38,0,0,1-1.62-2.31c.07-2.5,3.53-2.07,3.53-3.6,0-1.24-2.65-1.42-3.67-1.42h0c-1,0-3.67.18-3.67,1.42,0,1.53,3.46,1.1,3.53,3.6a2,2,0,0,1-2.17,2.16c-2.52,0-4.29-1.57-5.9-3.23l-.11-.12.2-.2c.24-.28.26-.52-.29-.27a4.34,4.34,0,0,0-.59.31Z"/><path class="cls-6" d="M18,30.68a2.18,2.18,0,0,1-1-.18,1.54,1.54,0,0,0,0,.24c.17.73.39.9.54.92s.27-.34.33-.68a1.62,1.62,0,0,1,.08-.29Z"/><path class="cls-4" d="M17.15,31.18c0-.41.7-.36.66.08a5.43,5.43,0,0,1,.15-.59,2.49,2.49,0,0,1-1-.18,1.54,1.54,0,0,0,0,.24,2.84,2.84,0,0,0,.14.45Z"/><path class="cls-8" d="M12.64,27.56l-12-.23a2.17,2.17,0,0,1,.76,1.13s0,.09,0,.13c0,1-.86,2.89.1,4.47.49.8,1.43,1.17,1.86.85.79-.59.88-2-.46-3.4l12.25-1.2a11.69,11.69,0,0,1-2.54-1.75Z"/><path class="cls-3" d="M1.37,31.11c3.51-.27,6.91-1.36,10.43-1.47l2.62-.48a5.72,5.72,0,0,1-1-.87l-.92-.58-4-.29c1.11.17,3.06.5,2.72,1.05-.6,1-6.36.46-9.55.69l-.22,1.94Z"/><path class="cls-3" d="M11.53,29.68c.26,1-.12,1.73-1.84,1.85S7.12,31.24,6.88,30c-.29-1.48.58-1.41,1.79-1.41,1.79,0,2.64.26,2.86,1.08Z"/><path class="cls-3" d="M15.18,29.31,2.93,30.51c1.29,1.42,1.1,3.61.46,3.77l6.69-2.34,2.61-.7L16,30.82q.53-.7-.82-1.51Z"/><path d="M15.28,29.64,3.8,30.85a3,3,0,0,1,.32,2.89,37.71,37.71,0,0,1,8.44-2.85c1.05-.2,2.21-.15,3.32-.27a.41.41,0,0,0,0-.42h0a1.3,1.3,0,0,0-.58-.56ZM11,29.5a2,2,0,0,0-.57-.5,3.32,3.32,0,0,0-1.73-.4,1.8,1.8,0,0,0-1.3.42,1.18,1.18,0,0,0-.27.86L11,29.5Zm-4.42.43A1.73,1.73,0,0,1,7,28.63,2.29,2.29,0,0,1,8.67,28a3.87,3.87,0,0,1,2,.48,2.48,2.48,0,0,1,.91.92l2.82-.28h0l-.52-.33c-1.06-.73-.71-.88-2-.86-.45,0-.94,0-1.4-.08-3.19-.24-7-.7-8.93-.27a2.23,2.23,0,0,1,.07,1.77c-.35,1,0,3.73.79,4.4.5.39.88.06,1.05-.57a2.35,2.35,0,0,0,.07-.91,4.18,4.18,0,0,0-.85-1.65.22.22,0,0,1,.15-.37l3.65-.36Zm-5.37-1.7A1.28,1.28,0,0,0,1,27.79a.51.51,0,0,0-.35-.24H.57a.18.18,0,0,0-.09.1.62.62,0,0,0,0,.3,1.29,1.29,0,0,0,.06.26h.66Zm0,.45h-1l-.06-.13A1.88,1.88,0,0,1,0,28a1.06,1.06,0,0,1,.06-.52.62.62,0,0,1,.32-.34l.08,0h0c2-.56,6.73,0,10,.26a5.42,5.42,0,0,0,2.18,0h.08l.06.05q.75.64,1.38,1.07a7.53,7.53,0,0,0,1.06.62h0l0,0,.76.34-.23,0a1.81,1.81,0,0,1,.45.51h0a.83.83,0,0,1-.08,1l-.05.07L16,31c-1.22.15-2.37.12-3.39.32-3.15.63-6.21,2.2-9.21,3.27l-.06,0h0a1.51,1.51,0,0,1-1.27-.23C1.13,33.8.51,31.29,1,29.48a4.73,4.73,0,0,0,.18-.8Z"/><path class="cls-8" d="M10.53,30.15h0l-6.72.7a4.19,4.19,0,0,1,.25.5l.09.25c1.64-.28,3.5-.56,5.15-.84,2-.34,3.95-.64,6-.82l.4,0a2,2,0,0,0-.3-.22l-.07,0-4.76.51Z"/><path class="cls-6" d="M21.06,33.76h0c-1.51,0-3.3-.71-3-.13.25.42,1.24.86,3,.93h0c1.72-.07,2.72-.51,3-.93.34-.58-1.46.14-3,.13Z"/><path class="cls-6" d="M21,23.56h0c1.29,0,2.34.25,2-.11-.13-.14-.51-.25-2-.34h0c-1.48.09-1.86.21-2,.34-.35.36.7.1,2,.11Z"/><path class="cls-6" d="M25.05,30.8c-.17.68-.38.84-.52.86s-.27-.34-.33-.68V30.9a6.07,6.07,0,0,1,.87-.1Z"/><path class="cls-4" d="M25.05,30.8a4,4,0,0,1-.17.5c-.08-.23-.48-.21-.61,0,0-.1-.05-.22-.07-.34l0-.07a6.08,6.08,0,0,1,.87-.1Z"/></g></g></svg>