<svg xmlns="http://www.w3.org/2000/svg" viewBox="0 0 15 15"><defs><style>.cls-1{fill:#435289;}</style></defs><title>setting</title><g id="Layer_2" data-name="Layer 2"><g id="Layer_2-2" data-name="Layer 2"><path class="cls-1" d="M14.23,5.93l-1.05-.18a5.94,5.94,0,0,0-.42-1l.62-.87a.92.92,0,0,0-.1-1.19l-.93-.93a.92.92,0,0,0-.65-.27.91.91,0,0,0-.54.17l-.87.62a5.88,5.88,0,0,0-1.06-.44L9,.77A.93.93,0,0,0,8.13,0H6.81A.93.93,0,0,0,5.9.77L5.72,1.84a5.8,5.8,0,0,0-1,.43l-.86-.62a.93.93,0,0,0-1.19.1l-.94.93a.93.93,0,0,0-.1,1.19l.63.88a5.81,5.81,0,0,0-.42,1L.77,6A.93.93,0,0,0,0,6.87V8.19a.93.93,0,0,0,.77.91l1.07.18a5.8,5.8,0,0,0,.43,1l-.62.86a.92.92,0,0,0,.1,1.19l.93.93a.92.92,0,0,0,.65.27.91.91,0,0,0,.54-.17l.88-.63a5.93,5.93,0,0,0,1,.41l.18,1.05a.93.93,0,0,0,.91.77H8.16a.93.93,0,0,0,.91-.77l.18-1.05a5.94,5.94,0,0,0,1-.42l.87.62a.92.92,0,0,0,.54.17h0a.92.92,0,0,0,.65-.27l.93-.93a.93.93,0,0,0,.1-1.19l-.62-.87a5.9,5.9,0,0,0,.42-1l1.05-.18A.93.93,0,0,0,15,8.16V6.84A.91.91,0,0,0,14.23,5.93Zm-.07,2.23a.08.08,0,0,1-.07.08l-1.32.22a.42.42,0,0,0-.34.31,5,5,0,0,1-.55,1.31.42.42,0,0,0,0,.46l.77,1.09a.09.09,0,0,1,0,.11l-.93.93a.08.08,0,0,1-.06,0l0,0-1.09-.77a.42.42,0,0,0-.46,0,5,5,0,0,1-1.31.55.42.42,0,0,0-.31.34l-.22,1.32a.08.08,0,0,1-.08.07H6.84a.08.08,0,0,1-.08-.07l-.22-1.32a.42.42,0,0,0-.31-.34,5.21,5.21,0,0,1-1.28-.53.43.43,0,0,0-.21-.06.41.41,0,0,0-.24.08l-1.1.78,0,0a.08.08,0,0,1-.06,0l-.93-.93a.08.08,0,0,1,0-.11l.77-1.08a.43.43,0,0,0,0-.46,5,5,0,0,1-.55-1.31.43.43,0,0,0-.34-.31L.91,8.27a.08.08,0,0,1-.07-.08V6.87a.08.08,0,0,1,.07-.08l1.31-.22a.42.42,0,0,0,.34-.31A5,5,0,0,1,3.1,4.94a.42.42,0,0,0,0-.46L2.3,3.39a.09.09,0,0,1,0-.11l.93-.93a.08.08,0,0,1,.06,0l0,0,1.08.77a.43.43,0,0,0,.46,0A5,5,0,0,1,6.2,2.58a.43.43,0,0,0,.31-.34L6.74.91A.08.08,0,0,1,6.82.84H8.14a.08.08,0,0,1,.08.07l.22,1.31a.42.42,0,0,0,.31.34,5.09,5.09,0,0,1,1.34.55.42.42,0,0,0,.46,0l1.08-.78,0,0a.08.08,0,0,1,.06,0l.93.93a.08.08,0,0,1,0,.11l-.77,1.09a.42.42,0,0,0,0,.46,5,5,0,0,1,.55,1.31.42.42,0,0,0,.34.31l1.32.22a.08.08,0,0,1,.07.08V8.16Z"/><path class="cls-1" d="M7.5,4.26A3.24,3.24,0,1,0,10.74,7.5,3.24,3.24,0,0,0,7.5,4.26Zm0,5.63A2.39,2.39,0,1,1,9.89,7.5,2.39,2.39,0,0,1,7.5,9.89Z"/></g></g></svg>