<svg xmlns="http://www.w3.org/2000/svg" viewBox="0 0 15.07 15"><defs><style>.cls-1{fill:#435289;}</style></defs><title>user</title><g id="Layer_2" data-name="Layer 2"><g id="Layer_2-2" data-name="Layer 2"><path class="cls-1" d="M7.51,8.06a4,4,0,1,0-4-4A4,4,0,0,0,7.51,8.06Zm0-7a3,3,0,1,1-3,3A3,3,0,0,1,7.51,1.05Z"/><path class="cls-1" d="M.53,15h14a.53.53,0,0,0,.53-.53A5.07,5.07,0,0,0,10,9.41h-5A5.07,5.07,0,0,0,0,14.47.53.53,0,0,0,.53,15Zm4.53-4.53h5a4,4,0,0,1,4,3.47H1.1A4,4,0,0,1,5.06,10.47Z"/></g></g></svg>